<svg width="130" height="199" fill="none" xmlns="http://www.w3.org/2000/svg"><path fill-rule="evenodd" clip-rule="evenodd" d="M91.871 136.421c-1.56 1.508-1.636 4.604-1.862 6.604.997-4.789 5.66-9.237 8.528-12.973 2.791-3.637 5.334-7.479 7.496-11.531.048-.088 4.751-9.166 1.125-8.16-10.065 2.747-8.698 20.216-15.287 26.06ZM107.6 62.325c1.717 4.186 10.694 24.122 16.97 20.005 4.995-3.277-.171-15.7-2.87-18.895-4.498-5.317-9.583-10.036-13.754-15.661-.72 5.085-2.421 9.541-.346 14.551Zm139.947 40.298c4.432.501 8.883.979 13.341 1.154-5.074-.581-10.056-1.281-15.17-1.335l1.829.181ZM.786 120.905c-.291-2.494 5.7-4.986 7.202-5.917 4.118-2.555 8.43-5.466 10.202-9.827 1.992-3.262-6.786-3.632-9.177-4.724-1.677-.765-5.715-2.914-6.131-4.966-.891-4.395 5.85-4.844 8.886-5.394 4.447-.804 6.704-.712 2.97-3.59-4.015-3.091-13.7-5.425-13.016-12.334.584-5.884 10.658-5.704 14.64-5.568 7.503.252 13.529 2.957 19.45 7.406 1.382 1.036 9.873 6.848 9.865 4.36-.646-5.604-7.185-8.338-8.594-13.678-.8-3.035-.218-5.502-1.435-8.605-1.2-3.065-4.075-7.85-1.324-11.016 1.747-2.008 4.533-1.674 6.378-.423 4.583 2.679 7.072 6.702 10.774 10.34 2.71 2.66 6.493 2.943 8.57 6.38 3.106 5.297 6.09 11.12 9.716 16.25 1.136 1.609 6.574 8.672 8.08 4.766.847-2.2-5.116-7.948-6.032-9.088-2.187-2.725-4.657-5.163-5.273-8.78-.354-2.074.602-3.945.313-5.562-.855-4.779-5.75-9.492-7.222-14.217-1.32-4.24-4.196-14.839-1.484-18.818 3.712-5.449 8.139 2.524 10.54 5.569 2.658 3.37 4.874 6.65 8.063 9.353 2.814 2.388 4.715 4.697 6.211 8.233 2.766 6.532 3.953 13.343 5.816 19.94a.558.558 0 0 1-.03-.065c1.154 3.813 3.123 8.012 6.105 10.8 5.001 4.674 4.251.529 2.472-4.25-2.68-7.204-6.479-13.989-9.185-21.166-.964-2.557-1.797-5.295-1.295-8.072.336-1.863 1.886-3.015 2.278-4.329 1.368-4.565-5.908-33.9 4.134-32.895 5.422.542 5.526 12.995 6.42 16.508 1.429 5.611 1.644 10.241 6.018 14.269.107-2.31 2.343-3.359 2.573-5.335.272-2.35-1.569-4.959-2.399-7.033-2.28-5.7-4.2-11.633-4.982-17.718-2.383-18.566 12.062-1.158 16.482 4.936.847 1.17 1.947 2.646 2.928 3.961 2.577 3.447 3.771 3.244 6.849 5.504 5.237 3.845 5.768 15.188 6.198 21.208.135 1.857 3.003 31.321 8.686 25.464 2.866-2.953-.374-16.142-1.518-20.045-1.76-6-8.035-15.275-5.668-21.612.744-1.99 2.54-2.431 3.315-4.188 1.816-4.099-.734-10.727-.722-15.015.026-8.726 6.007-13.397 9.403-2.62 1.343 4.265 2.488 6.868 4.637 10.834 2.451 4.525 1.048 9.478 2.617 14.01 1.298 3.747 1.842.525 4.721 3.671 2.389 2.614 1.182 9.229.717 12.447-.646 4.469-5.775 22.36.366 24.076 5.597 1.564 7.006-10.475 7.186-13.894.453-8.55-3.222-15.882-5.937-23.712-1.323-3.816-3.015-8.365-3.065-12.458-.042-3.588 1.726-5.824 2.985-8.937 1.465-3.623 6.917-20.623 13.43-12.959 4.376 5.15-.043 14.07 3.629 19.482 1.698-4.307 2.015-16.616 8.763-16.943 6.515-.315 6.2 13.139 6.586 17.727.236 2.815-1.722 18.451.995 20.919 2.838 2.575 5.04-1.511 6.511-3.67 2.518-3.69 23.742-38.08 29.216-32.263 4.246 4.509-7.985 13.594-6.913 17.464.393 1.423 1.947.777 3.109 1.566 4.259 2.89 4.478 5.504 1.08 9.62 12.053 5.068-4.339 12.207-9.69 14.769-3.645 1.745-19.407 8.913-14.498 15.512 1.651 2.22 7.952 2.075 10.389 3.438 4.7 2.628 4.212 7.557-.577 9.812-3.293 1.553-7.649 1.575-11.196 1.114-2.036-.263-7.36-2.484-9.126-1.265 6.285 6.093-.533 6.451-6.495 7.039-4.459.44-16.017 1.079-17.582 6.882 6.838 1.165 13.934.47 20.82 1.149 7.539.746 14.95 1.08 22.797 1.077 14.88-.008 30.434.636 45.174 2.306 7.21.816 14.504 1.178 21.749 1.561 2.613.137 16.598-1.469 16.291 3.767-.416 7.08-19.542.652-23.68 1.8-26.942-1.94-54.002-2.327-80.826-4.929 2.142 1.162 6.194 6.396 3.598 8.79 1.936.783 5.762 1.116 6.886 3.086 2.484 4.361-1.982 2.623-3.083 4.103-1.879 2.532 3.876 4.737 5.889 5.963 9.384 5.708 17.902 13.651 26.076 20.977 4.485 4.02 12.54 19.433 1.451 20.347-5.534.458-12.087-5.577-15.772-8.939-2.326-2.12-7.418-9.349-10.881-9.756-1.241 3.895 1.682 13.056 2.181 16.875 1.059 8.075.894 14.032-4.796 20.405-13.518 15.142-12.127-18.432-14.949-17.815-1.985.434-3.44 15.871-3.723 17.821-.625 4.323-3.656 16.346-10.221 15.214-5.508-.95-4.886-12.215-5.17-16.035-.239-3.203-1.486-6.683-1.363-10.265.1-2.947 1.331-5.779 1.485-8.642.161-2.977-1.777-5.13-1.64-8.492.152-3.774 1.308-7.938 1.821-11.741.857-6.355 2.386-15.025-2.193-20.529-7.248 9.137-4.065 23.649-4.575 34.402-.256 5.378-.286 11.985-5.241 15.11-1.991 1.255-.549-.79-2.893 1.217-.526.45-.909 1.393-1.277 1.974-2.631 4.168-4.684 8.636-7.201 12.862-1.56 2.623-5.895 11.72-9.769 11.553-7.025-.303-1.311-24.035-.708-28.644.458-3.485 1.537-7.142 1.825-10.578.266-3.153-1.089-5.681.148-9.026 1.601-4.332 4.592-8.219 6.664-12.326 2.786-5.524 4.222-11.021 5.075-17.11.354-2.521 1.511-8.338-1.212-9.596-4.376-2.018-5.823 7.481-6.512 9.888-2.037 7.131-2.257 15.52-6.262 22.828-4.14 7.561-1.487 16.307-4.365 24.219-1.04 2.858-2.055 4.03-4.492 5.68-2.71 1.838-4.061 2.641-6.085 5.979-1.835 3.025-9.872 18.452-14.376 12.075-1.461-2.069.404-5.348.999-7.366 1.311-4.448 2.376-8.979 3.795-13.394.901-2.803 2.603-5.8 2.638-8.809.034-2.854-1.079-4.631.08-7.607 1.56-4.008 5.964-7.938 6.74-12.048.742-3.918.298-8.063 1.501-12.19.959-3.283 8.638-19.598 6.351-21.263-4.646-3.388-10.628 17.697-11.116 19.292-3.111 10.171-4.908 21.421-8.403 31.555-1.175 3.406-3.379 4.735-5.193 7.129-2.409 3.18-3.452 8.001-5.654 11.48-1.754 2.772-6.345 10.022-9.076 4.918-1.975-3.687 1.051-11.513 1.627-15.486.654-4.491.97-8.969 2.134-13.368.25-.947 1.13-2.698 1.086-3.623-.127-2.562-2.978-3.851-3.026-6.826-.087 2.984-.85 5.238-2.915 7.308-.537.542-2.158.99-2.924 1.576-2.314 1.77-4.064 4.846-5.899 7.109-2.58 3.175-17.6 17.124-15.101 4.611 1.068-5.348 3.057-10.562 5.199-15.55 1.681-3.92 4.537-8.39 5.007-12.657.486-4.423-.08-5.901 2.972-9.945 3.138-4.155 8.425-9.141 8.713-14.625.582-11.172-15.45 11.703-17.017 14.277-3.165 5.197-6.897 10.502-12.132 13.782-5.837 3.659-12.043 5.294-17.315 10.024-2.35 2.11-9.494 9.587-12.913 5.852-3.367-3.678 4.645-12.019 6.402-14.607 1.816-2.674 4.233-5.353 5.756-8.149 1.38-2.539 1.637-5.288 2.83-7.916 3.38-7.455 10.642-9.323 15.824-14.912 2.736-2.952 2.996-5.421-2.01-4.519-2.703.484-5.4 2.934-7.832 4.272-3.657 2.015-7.487 3.764-11.23 5.618-5.052 2.5-33.096 16.868-34.47 4.774Z" fill="#89B99A"/></svg>