<svg width="226" height="371" viewBox="0 0 226 371" fill="none" xmlns="http://www.w3.org/2000/svg">
<path fill-rule="evenodd" clip-rule="evenodd" d="M142.612 129.497C130.133 125.523 117.123 124.589 104.191 123.194C108.312 122.285 112.773 121.07 116.97 120.604C120.832 120.18 123.13 121.771 126.765 123.037C133.252 125.302 140.5 128.054 146.14 130.685C144.971 130.27 143.794 129.874 142.612 129.497ZM124.839 134.462C111.148 131.904 97.1319 131.349 83.4604 128.674C86.8503 127.637 88.7707 126.733 92.3734 127.076C97.7282 127.584 103.147 128.681 108.379 129.846C115.973 131.537 123.635 133.361 131.033 135.76C128.978 135.283 126.913 134.85 124.839 134.462ZM125.498 137.134C124.561 137.513 121.277 136.229 120.216 136C121.238 136.195 124.899 137.376 125.498 137.134ZM98.2388 136.853C87.5253 136.182 76.6829 135.846 65.9511 135.902C67.8775 135.182 69.7177 134.28 71.5948 133.438C76.7278 131.137 77.6199 131.503 82.7441 133.015C89.3529 134.967 96.1241 136.078 102.9 137.208C101.348 137.064 99.7941 136.946 98.238 136.854L98.2388 136.853ZM85.7364 143.031C70.9464 144.153 56.3572 145.945 41.5931 147.598C44.7446 146.325 47.7755 144.705 50.7868 143.14C55.4351 140.728 59.0034 141.068 64.1845 141.066C69.6881 141.063 75.0935 141.709 80.5644 142.331C81.9144 142.486 87.2 142.919 85.7364 143.031ZM62.9477 131.793C70.8444 124.125 79.9031 116.98 89.1836 111.007C95.0743 107.216 101.48 102.935 108.402 106.222C96.9537 106.698 81.9975 117.081 75.2219 125.98C74.897 126.401 74.3999 126.693 74.0606 127.107C72.7892 128.651 74.1744 128.819 73.3086 129.769C73.2079 129.881 68.5828 131.769 69.1965 131.517C66.0591 132.811 62.8483 133.898 59.7056 135.174C60.7688 134.029 61.8479 132.901 62.9485 131.792L62.9477 131.793ZM106.996 113.421C99.2236 119.921 90.7916 123.381 81.4304 126.642C89.9797 121.144 98.5517 116.647 107.949 112.709C107.631 112.946 107.313 113.183 106.997 113.422L106.996 113.421ZM116.668 115.651C118.288 115.132 119.011 115.266 119.371 117.19C115.185 117.031 113.197 117.605 109.241 118.565C111.646 117.423 114.128 116.449 116.668 115.651ZM121.805 116.7C121.514 116.172 121.389 115.164 121.186 114.649C124.294 114.598 126.933 115.255 129.574 116.885C128.7 116.893 122.021 117.664 121.805 116.7L121.805 116.7ZM-4.22633 188.851C18.4947 186.045 40.2863 185.312 63.1052 187.536C45.9135 189.043 28.6497 192.498 11.7333 195.852C-1.84924 198.545 -15.6217 199.999 -29.2432 202.433C-26.7189 199.806 -24.3592 197.023 -21.7879 194.434C-17.3223 189.939 -10.6313 189.652 -4.22633 188.851ZM73.8886 195.542C77.9906 195.122 82.0832 194.613 86.1633 194.015C90.598 193.36 97.6721 190.436 102.135 191.317C77.7704 198.55 51.4418 201.884 26.3953 205.96C15.9843 207.655 5.38543 210.132 -4.69982 213.275C-19.2611 217.81 -35.6853 217.788 -49.5824 224.159C-45.3323 219.705 -40.6773 213.334 -35.8353 209.712C-32.3164 207.077 -26.4787 206.858 -22.2917 206.305C-15.3985 205.396 -8.47133 204.689 -1.55966 203.945C23.5999 201.234 48.7194 198.174 73.8886 195.542ZM-53.5217 219.667C-55.5659 221.917 -57.5554 224.216 -59.4887 226.561C-55.9795 210.101 -56.1371 192.743 -54.1603 176.034C-53.0424 166.586 -51.9934 157.032 -50.4901 147.646C-49.1609 139.358 -48.8068 128.066 -44.3635 120.906C-41.0475 123.986 -38.596 127.255 -39.2548 131.732C-40.1021 137.49 -42.582 143.023 -43.7355 148.735C-45.0315 155.154 -45.909 161.687 -46.7102 168.185C-47.9426 178.179 -48.2303 188.345 -47.7022 198.393C-47.5595 201.218 -47.378 204.04 -47.1578 206.86C-47.0612 208.09 -46.424 210.187 -46.6955 211.337C-47.3588 214.165 -51.3834 217.299 -53.5217 219.667ZM-29.0189 151.136C-27.0714 141.887 -25.8838 131.141 -21.8326 122.471C-19.5839 117.653 -17.4213 115.938 -14.0618 121.142C-11.6639 124.856 -15.4309 133.008 -16.6183 137.676C-19.9852 150.921 -21.7629 164.511 -23.9908 177.979C-24.5726 181.508 -24.7454 184.998 -25.1209 188.531C-25.434 191.46 -25.353 191.286 -27.0402 193.491C-28.1248 194.916 -29.836 196.126 -31.1442 197.376C-34.5733 200.653 -38.0498 203.887 -41.4434 207.202C-36.2802 188.73 -32.9589 169.882 -29.0189 151.136ZM225.002 193.144C221.873 188.983 217.905 185.231 213.845 182.015C208.222 177.556 201.336 174.948 195.72 170.66C190.997 167.05 187.096 162.246 182.269 158.59C174.601 152.788 166.71 147.962 157.731 144.476C169.166 148.378 180.133 153.075 189.294 161.172C190.068 161.858 196.778 170.449 198.166 169.628C199.116 169.074 195.09 162.856 194.251 161.407C188.061 150.76 175.358 143.947 165.32 137.108C153.983 129.386 141.603 125.053 128.687 120.782C140.422 121.43 150.308 124.444 160.139 131.047C164.974 134.292 169.448 138.084 174.432 141.098C178.85 143.77 183.094 146.234 186.907 149.82C191.178 153.839 194.609 158.219 197.443 163.353C198.508 165.285 203.71 176.978 203.85 169.55C203.919 165.89 199.297 160.675 197.426 158.03C194.271 153.575 190.612 149.562 186.782 145.682C180.267 139.088 174.049 132.244 166.316 127.041C161.918 124.08 157.312 121.735 152.28 120.044C148.394 118.736 144.405 117.798 140.327 117.336C136.455 116.898 136.082 116.944 133.001 114.944C130.353 113.223 128.093 111.382 125.13 110.155C122.111 108.903 119.541 108.724 117.295 107.016C114.645 104.997 113.617 102.629 110.198 101.365C107.054 100.202 103.837 100.458 100.557 100.72C89.71 101.584 78.6967 104.334 69.7225 110.75C61.7914 116.422 56.3989 125.473 52.5652 134.298C50.4481 139.167 51.8849 138.984 46.1999 141.783C40.2232 144.727 34.2806 147.619 28.4658 150.903C38.0532 138.986 46.3885 125.792 56.8995 114.624C62.5197 108.659 68.0321 102.596 73.6509 96.634C75.3097 94.8772 88.4118 82.2225 81.0526 82.6715C79.3512 82.7743 76.7916 85.0486 75.2279 85.7953C72.107 87.2933 69.0081 88.6208 66.1232 90.5784C61.1223 93.972 57.0404 98.194 52.9512 102.585C42.3576 113.96 32.8096 126.126 27.9218 141.061C26.7643 144.595 26.3411 148.579 24.5274 151.822C23.2498 154.11 21.7496 154.9 19.1556 156.59C14.7068 159.483 10.3829 162.458 6.16959 165.693C16.9425 149.738 23.8916 131.883 32.3802 114.704C43.2975 92.6156 48.2928 67.8262 57.4761 45.0043C59.2571 40.5777 61.4267 35.7067 64.4155 31.9389C65.3246 30.793 68.1982 29.0752 68.4491 27.6304C69.1121 23.819 66.5304 24.8423 64.6353 25.9384C59.99 28.6234 55.4797 34.6799 52.3056 38.7623C47.6863 44.7003 43.0076 51.1418 39.0061 57.5395C25.2206 79.5744 16.0813 104.58 8.4896 129.329C4.91758 140.963 1.23417 152.789 -0.523546 164.854C-1.3711 170.679 -0.407853 170.835 -5.2752 174.822C-10.3584 178.988 -15.2158 183.408 -20.2589 187.615C-15.6633 178.178 -12.9241 166.475 -9.60754 156.463C-6.13526 145.975 -2.18578 135.645 1.34328 125.173C7.08255 108.132 11.3784 90.6845 15.5109 73.2007C17.7058 63.9048 19.7628 54.6018 21.6441 45.2405C24.0623 33.2107 26.5209 19.32 31.9132 8.22306C32.7174 6.57266 35.985 -1.09561 31.2571 1.54555C29.091 2.75298 26.5237 10.6547 25.4183 12.7851C19.1543 24.8843 13.8774 37.1694 9.16264 49.9457C0.805588 72.6 -5.05889 95.8151 -11.6804 118.981C-14.9901 114.462 -21.8632 109.487 -27.802 111.41C-33.1362 113.139 -35.7598 120.732 -37.4381 125.489C-37.6245 122.198 -41.6617 116.06 -44.8093 115.85C-46.5978 115.73 -49.68 117.425 -51.1757 118.132C-54.8735 119.88 -59.0736 122.092 -61.3798 125.533C-66.1062 132.591 -65.2096 143.67 -66.0494 151.839C-68.5502 176.203 -68.1021 199.727 -65.348 223.991C-64.7188 229.543 -63.9583 232.119 -67.1172 236.495C-70.7253 241.495 -74.2038 246.411 -77.7564 251.105C-76.6149 248.931 -77.6465 242.286 -77.6597 239.968C-77.6963 233.758 -77.6327 227.601 -77.3104 221.396C-76.6489 208.616 -77.3347 195.408 -77.9786 182.62C-79.3043 156.272 -79.1837 130.26 -78.2954 103.919C-78.1094 98.3682 -78.2343 92.8518 -78.2683 87.3041C-78.2826 85.0136 -77.5247 79.4028 -81.1626 80.7442C-82.219 81.1333 -82.9963 85.2298 -83.3031 86.2688C-86.1369 95.8462 -87.0265 106.207 -88.3244 116.043C-89.5036 124.989 -90.581 133.95 -91.3284 142.94C-92.7644 160.211 -92.2902 176.982 -92.2027 194.282C-92.1293 208.533 -90.5842 224.026 -87.9499 237.173C-86.7145 243.339 -84.5674 250.001 -83.9419 256.215C-83.5625 259.957 -85.7524 261.344 -88.2671 264.742C-90.8118 268.178 -93.3253 271.641 -95.7539 275.16C-95.5198 269.768 -97.0567 264.193 -97.4174 258.797C-97.7196 254.289 -98.0061 249.804 -98.412 245.301C-98.7347 241.755 -99.0388 238.205 -99.353 234.656C-100.972 216.387 -102.554 198.159 -105.543 180.058C-110.139 152.262 -115.151 123.696 -114.966 95.4189C-114.929 90.0222 -114.754 84.6292 -114.692 79.2311C-114.646 75.1624 -115.02 71.1261 -115.044 67.0632C-115.056 64.9911 -114.112 60.9843 -114.803 58.9197C-116.803 52.9457 -118.535 59.621 -118.59 62.3645C-118.619 63.81 -118.705 65.2513 -118.727 66.6961C-118.861 75.7752 -119.642 84.73 -120.091 93.7988C-120.734 106.875 -120.159 119.886 -119.725 132.956C-119.251 147.193 -119.607 161.528 -118.077 175.713C-116.103 193.996 -112.15 212.174 -109.669 230.409C-108.59 238.35 -107.084 246.204 -106.267 254.182C-105.505 261.639 -102.858 268.969 -101.247 275.857L-101.256 275.329C-100.631 278.257 -99.6506 279.72 -100.54 282.407C-101.168 284.294 -102.889 286.278 -103.919 288.012C-106.118 291.7 -108.227 295.431 -110.338 299.169C-108.467 289.681 -111.003 277.71 -113.01 268.39C-115.229 258.078 -117.932 247.516 -121.097 237.459C-123.558 229.638 -125.595 221.95 -126.338 213.809C-127.328 202.967 -130.277 192.54 -131.862 181.799C-133.358 171.657 -135.877 161.615 -138.023 151.576C-138.507 149.316 -140.665 138.506 -144.177 143.382C-145.043 144.585 -143.981 147.78 -143.845 149.024C-143.511 152.104 -143.303 155.135 -143.165 158.227C-142.269 177.858 -138.157 197.786 -134.935 217.128C-132.876 229.486 -130.695 241.889 -127.686 254.052C-125.343 263.522 -124.077 273.361 -121.478 282.698C-120.231 287.177 -118.965 291.755 -116.972 295.96C-115.239 299.62 -113.491 300.642 -114.103 304.586C-114.978 310.224 -119.779 316.077 -121.945 321.536C-123.717 325.999 -125.523 330.47 -127.211 334.964C-129.569 341.26 -131.779 347.666 -133.848 354.061C-135.049 357.765 -137.378 362.546 -137.596 366.313C-137.929 372.035 -134.69 370.398 -132.989 366.571C-131.845 363.995 -130.932 361.224 -129.855 358.605C-121.96 339.414 -114.73 318.838 -102.94 301.619C-98.0225 294.428 -84.4281 292.695 -76.4519 290.188C-57.2641 284.149 -36.5072 283.353 -16.5983 281.146C-0.54451 279.37 15.2488 277.736 30.9653 273.788C33.2611 273.213 75.154 260.879 74.1031 258.728C74.6898 259.935 28.2709 270.265 24.5536 270.57C12.8964 271.52 1.27632 271.775 -10.4065 272.269C-39.6288 273.506 -68.372 274.208 -94.9246 288.015C-91.5739 282.745 -87.5658 272.797 -81.6842 270.756C-70.3485 266.818 -58.4015 264.275 -46.9812 260.435C-35.1093 256.449 -22.9177 253.779 -10.9762 250.085C0.95196 246.395 12.8538 242.572 24.9632 239.469C37.1352 236.35 49.7091 233.1 62.3568 233.501C67.225 233.656 72.1068 234.087 76.9543 234.545C78.785 234.718 93.3556 237.412 85.4767 234.066C80.3746 231.897 73.6948 231.73 68.2293 230.934C61.9614 230.024 55.9534 229.216 49.6185 229.266C35.8247 229.372 21.9683 232.606 8.63485 235.807C-7.32267 239.634 -23.9345 243.432 -39.1668 249.591C-53.1273 255.236 -67.1593 260.656 -81.1204 266.231C-78.5816 262.345 -75.8816 258.576 -73.2402 254.759C-71.9575 252.902 -70.604 249.889 -68.7826 248.621C-66.0028 246.684 -60.1537 246.181 -56.9251 245.106C-43.9347 240.787 -30.8852 235.714 -17.574 232.501C3.82859 227.333 25.7404 224.128 47.2763 219.529C59.8446 216.848 73.154 214.482 86.0047 214.71C90.8387 214.798 95.6794 214.622 100.426 215.643C102.105 216.003 104.219 216.933 105.948 217.129C111.123 217.709 107.284 215.22 104.145 214.132C79.2662 205.519 51.8429 212.405 26.7645 215.91C10.1794 218.225 -6.19382 220.587 -22.0296 226.292C-36.6207 231.547 -50.5704 238.556 -65.4039 243.171C-61.5161 237.646 -58.05 231.925 -51.8383 228.885C-44.9643 225.524 -37.7191 224.062 -30.2172 222.788C-14.62 220.13 0.872733 216.728 16.5201 214.413C30.8947 212.29 45.2431 210.406 59.4917 207.508C73.3653 204.682 87.1574 203.031 100.399 197.691C104.591 196 109.674 193.069 114.15 192.813C119.952 192.482 126.977 194.22 132.666 195.082C146.522 197.177 160.905 199.337 173.714 205.202C186.282 210.958 194.816 220.004 204.437 229.461C207.468 232.445 210.45 235.479 213.473 238.471C214.146 239.138 218.163 244.146 218.991 244.21C224.115 244.594 214.449 234.438 212.781 232.357C201.254 217.976 188.78 205.982 171.822 198.147C157.37 191.469 142.261 187.126 126.501 184.902C126.541 182.053 138.152 181.911 138.47 178.96C138.892 175.025 130.767 178.963 129.157 179.447C126.099 180.365 123.125 181.513 120.052 182.382C112.996 184.376 105.19 181.92 98.0225 181C89.3811 179.896 80.6255 179.172 71.9345 178.649C43.1644 176.914 15.5603 177.868 -12.3839 185.577C-7.36961 181.185 -2.13862 177.011 3.16135 172.969C5.22488 171.396 6.79787 169.955 9.13564 169.217C13.0842 167.97 17.772 168.527 21.8881 168.124C38.1601 166.537 54.3579 164.753 70.7196 164.251C97.6463 163.425 125.721 168.258 151.256 176.818C163.714 180.996 175.936 185.059 186.753 192.749C189.258 194.527 191.485 196.568 193.761 198.623C194.702 199.472 200.446 205.649 200.738 205.616C203.23 205.35 191.676 192.565 189.997 190.932C167.436 169.003 138.161 164.018 108.268 159.615C77.0083 155.009 45.6314 157.455 14.8349 164.404C20.9846 160.567 27.0288 153.991 33.9324 151.76C39.1764 150.064 45.8324 150.386 51.1385 149.842C66.5264 148.26 82.6554 150.947 98.0768 152.039C115.498 153.271 132.421 155.506 149.264 160.147C157.882 162.522 166.274 165.035 174.683 168.119C181.347 170.563 186.784 172.068 192.175 176.534C194.35 178.352 200.821 183.18 204.322 186.462C205.75 187.803 207.229 190.635 208.843 191.309C214.855 193.817 206.876 184.021 205.566 182.321C210.345 185.176 214.806 188.482 219.049 192.002C219.888 192.7 220.691 193.233 221.541 193.87C222.538 194.621 223.061 196.812 224.769 196.082C226.16 195.484 225.666 194.051 225.002 193.144Z" fill="#012A32"/>
<path fill-rule="evenodd" clip-rule="evenodd" d="M142.612 129.497C130.133 125.523 117.123 124.589 104.191 123.194C108.312 122.285 112.773 121.07 116.97 120.604C120.832 120.18 123.13 121.771 126.765 123.037C133.252 125.302 140.5 128.054 146.14 130.685C144.971 130.27 143.794 129.874 142.612 129.497ZM124.839 134.462C111.148 131.904 97.1319 131.349 83.4604 128.674C86.8503 127.637 88.7707 126.733 92.3734 127.076C97.7282 127.584 103.147 128.681 108.379 129.846C115.973 131.537 123.635 133.361 131.033 135.76C128.978 135.283 126.913 134.85 124.839 134.462ZM125.498 137.134C124.561 137.513 121.277 136.229 120.216 136C121.238 136.195 124.899 137.376 125.498 137.134ZM98.2388 136.853C87.5253 136.182 76.6829 135.846 65.9511 135.902C67.8775 135.182 69.7177 134.28 71.5948 133.438C76.7278 131.137 77.6199 131.503 82.7441 133.015C89.3529 134.967 96.1241 136.078 102.9 137.208C101.348 137.064 99.7941 136.946 98.238 136.854L98.2388 136.853ZM85.7364 143.031C70.9464 144.153 56.3572 145.945 41.5931 147.598C44.7446 146.325 47.7755 144.705 50.7868 143.14C55.4351 140.728 59.0034 141.068 64.1845 141.066C69.6881 141.063 75.0935 141.709 80.5644 142.331C81.9144 142.486 87.2 142.919 85.7364 143.031ZM62.9477 131.793C70.8444 124.125 79.9031 116.98 89.1836 111.007C95.0743 107.216 101.48 102.935 108.402 106.222C96.9537 106.698 81.9975 117.081 75.2219 125.98C74.897 126.401 74.3999 126.693 74.0606 127.107C72.7892 128.651 74.1744 128.819 73.3086 129.769C73.2079 129.881 68.5828 131.769 69.1965 131.517C66.0591 132.811 62.8483 133.898 59.7056 135.174C60.7688 134.029 61.8479 132.901 62.9485 131.792L62.9477 131.793ZM106.996 113.421C99.2236 119.921 90.7916 123.381 81.4304 126.642C89.9797 121.144 98.5517 116.647 107.949 112.709C107.631 112.946 107.313 113.183 106.997 113.422L106.996 113.421ZM116.668 115.651C118.288 115.132 119.011 115.266 119.371 117.19C115.185 117.031 113.197 117.605 109.241 118.565C111.646 117.423 114.128 116.449 116.668 115.651ZM121.805 116.7C121.514 116.172 121.389 115.164 121.186 114.649C124.294 114.598 126.933 115.255 129.574 116.885C128.7 116.893 122.021 117.664 121.805 116.7L121.805 116.7ZM-4.22633 188.851C18.4947 186.045 40.2863 185.312 63.1052 187.536C45.9135 189.043 28.6497 192.498 11.7333 195.852C-1.84924 198.545 -15.6217 199.999 -29.2432 202.433C-26.7189 199.806 -24.3592 197.023 -21.7879 194.434C-17.3223 189.939 -10.6313 189.652 -4.22633 188.851ZM73.8886 195.542C77.9906 195.122 82.0832 194.613 86.1633 194.015C90.598 193.36 97.6721 190.436 102.135 191.317C77.7704 198.55 51.4418 201.884 26.3953 205.96C15.9843 207.655 5.38543 210.132 -4.69982 213.275C-19.2611 217.81 -35.6853 217.788 -49.5824 224.159C-45.3323 219.705 -40.6773 213.334 -35.8353 209.712C-32.3164 207.077 -26.4787 206.858 -22.2917 206.305C-15.3985 205.396 -8.47133 204.689 -1.55966 203.945C23.5999 201.234 48.7194 198.174 73.8886 195.542ZM-53.5217 219.667C-55.5659 221.917 -57.5554 224.216 -59.4887 226.561C-55.9795 210.101 -56.1371 192.743 -54.1603 176.034C-53.0424 166.586 -51.9934 157.032 -50.4901 147.646C-49.1609 139.358 -48.8068 128.066 -44.3635 120.906C-41.0475 123.986 -38.596 127.255 -39.2548 131.732C-40.1021 137.49 -42.582 143.023 -43.7355 148.735C-45.0315 155.154 -45.909 161.687 -46.7102 168.185C-47.9426 178.179 -48.2303 188.345 -47.7022 198.393C-47.5595 201.218 -47.378 204.04 -47.1578 206.86C-47.0612 208.09 -46.424 210.187 -46.6955 211.337C-47.3588 214.165 -51.3834 217.299 -53.5217 219.667ZM-29.0189 151.136C-27.0714 141.887 -25.8838 131.141 -21.8326 122.471C-19.5839 117.653 -17.4213 115.938 -14.0618 121.142C-11.6639 124.856 -15.4309 133.008 -16.6183 137.676C-19.9852 150.921 -21.7629 164.511 -23.9908 177.979C-24.5726 181.508 -24.7454 184.998 -25.1209 188.531C-25.434 191.46 -25.353 191.286 -27.0402 193.491C-28.1248 194.916 -29.836 196.126 -31.1442 197.376C-34.5733 200.653 -38.0498 203.887 -41.4434 207.202C-36.2802 188.73 -32.9589 169.882 -29.0189 151.136ZM225.002 193.144C221.873 188.983 217.905 185.231 213.845 182.015C208.222 177.556 201.336 174.948 195.72 170.66C190.997 167.05 187.096 162.246 182.269 158.59C174.601 152.788 166.71 147.962 157.731 144.476C169.166 148.378 180.133 153.075 189.294 161.172C190.068 161.858 196.778 170.449 198.166 169.628C199.116 169.074 195.09 162.856 194.251 161.407C188.061 150.76 175.358 143.947 165.32 137.108C153.983 129.386 141.603 125.053 128.687 120.782C140.422 121.43 150.308 124.444 160.139 131.047C164.974 134.292 169.448 138.084 174.432 141.098C178.85 143.77 183.094 146.234 186.907 149.82C191.178 153.839 194.609 158.219 197.443 163.353C198.508 165.285 203.71 176.978 203.85 169.55C203.919 165.89 199.297 160.675 197.426 158.03C194.271 153.575 190.612 149.562 186.782 145.682C180.267 139.088 174.049 132.244 166.316 127.041C161.918 124.08 157.312 121.735 152.28 120.044C148.394 118.736 144.405 117.798 140.327 117.336C136.455 116.898 136.082 116.944 133.001 114.944C130.353 113.223 128.093 111.382 125.13 110.155C122.111 108.903 119.541 108.724 117.295 107.016C114.645 104.997 113.617 102.629 110.198 101.365C107.054 100.202 103.837 100.458 100.557 100.72C89.71 101.584 78.6967 104.334 69.7225 110.75C61.7914 116.422 56.3989 125.473 52.5652 134.298C50.4481 139.167 51.8849 138.984 46.1999 141.783C40.2232 144.727 34.2806 147.619 28.4658 150.903C38.0532 138.986 46.3885 125.792 56.8995 114.624C62.5197 108.659 68.0321 102.596 73.6509 96.634C75.3097 94.8772 88.4118 82.2225 81.0526 82.6715C79.3512 82.7743 76.7916 85.0486 75.2279 85.7953C72.107 87.2933 69.0081 88.6208 66.1232 90.5784C61.1223 93.972 57.0404 98.194 52.9512 102.585C42.3576 113.96 32.8096 126.126 27.9218 141.061C26.7643 144.595 26.3411 148.579 24.5274 151.822C23.2498 154.11 21.7496 154.9 19.1556 156.59C14.7068 159.483 10.3829 162.458 6.16959 165.693C16.9425 149.738 23.8916 131.883 32.3802 114.704C43.2975 92.6156 48.2928 67.8262 57.4761 45.0043C59.2571 40.5777 61.4267 35.7067 64.4155 31.9389C65.3246 30.793 68.1982 29.0752 68.4491 27.6304C69.1121 23.819 66.5304 24.8423 64.6353 25.9384C59.99 28.6234 55.4797 34.6799 52.3056 38.7623C47.6863 44.7003 43.0076 51.1418 39.0061 57.5395C25.2206 79.5744 16.0813 104.58 8.4896 129.329C4.91758 140.963 1.23417 152.789 -0.523546 164.854C-1.3711 170.679 -0.407853 170.835 -5.2752 174.822C-10.3584 178.988 -15.2158 183.408 -20.2589 187.615C-15.6633 178.178 -12.9241 166.475 -9.60754 156.463C-6.13526 145.975 -2.18578 135.645 1.34328 125.173C7.08255 108.132 11.3784 90.6845 15.5109 73.2007C17.7058 63.9048 19.7628 54.6018 21.6441 45.2405C24.0623 33.2107 26.5209 19.32 31.9132 8.22306C32.7174 6.57266 35.985 -1.09561 31.2571 1.54555C29.091 2.75298 26.5237 10.6547 25.4183 12.7851C19.1543 24.8843 13.8774 37.1694 9.16264 49.9457C0.805588 72.6 -5.05889 95.8151 -11.6804 118.981C-14.9901 114.462 -21.8632 109.487 -27.802 111.41C-33.1362 113.139 -35.7598 120.732 -37.4381 125.489C-37.6245 122.198 -41.6617 116.06 -44.8093 115.85C-46.5978 115.73 -49.68 117.425 -51.1757 118.132C-54.8735 119.88 -59.0736 122.092 -61.3798 125.533C-66.1062 132.591 -65.2096 143.67 -66.0494 151.839C-68.5502 176.203 -68.1021 199.727 -65.348 223.991C-64.7188 229.543 -63.9583 232.119 -67.1172 236.495C-70.7253 241.495 -74.2038 246.411 -77.7564 251.105C-76.6149 248.931 -77.6465 242.286 -77.6597 239.968C-77.6963 233.758 -77.6327 227.601 -77.3104 221.396C-76.6489 208.616 -77.3347 195.408 -77.9786 182.62C-79.3043 156.272 -79.1837 130.26 -78.2954 103.919C-78.1094 98.3682 -78.2343 92.8518 -78.2683 87.3041C-78.2826 85.0136 -77.5247 79.4028 -81.1626 80.7442C-82.219 81.1333 -82.9963 85.2298 -83.3031 86.2688C-86.1369 95.8462 -87.0265 106.207 -88.3244 116.043C-89.5036 124.989 -90.581 133.95 -91.3284 142.94C-92.7644 160.211 -92.2902 176.982 -92.2027 194.282C-92.1293 208.533 -90.5842 224.026 -87.9499 237.173C-86.7145 243.339 -84.5674 250.001 -83.9419 256.215C-83.5625 259.957 -85.7524 261.344 -88.2671 264.742C-90.8118 268.178 -93.3253 271.641 -95.7539 275.16C-95.5198 269.768 -97.0567 264.193 -97.4174 258.797C-97.7196 254.289 -98.0061 249.804 -98.412 245.301C-98.7347 241.755 -99.0388 238.205 -99.353 234.656C-100.972 216.387 -102.554 198.159 -105.543 180.058C-110.139 152.262 -115.151 123.696 -114.966 95.4189C-114.929 90.0222 -114.754 84.6292 -114.692 79.2311C-114.646 75.1624 -115.02 71.1261 -115.044 67.0632C-115.056 64.9911 -114.112 60.9843 -114.803 58.9197C-116.803 52.9457 -118.535 59.621 -118.59 62.3645C-118.619 63.81 -118.705 65.2513 -118.727 66.6961C-118.861 75.7752 -119.642 84.73 -120.091 93.7988C-120.734 106.875 -120.159 119.886 -119.725 132.956C-119.251 147.193 -119.607 161.528 -118.077 175.713C-116.103 193.996 -112.15 212.174 -109.669 230.409C-108.59 238.35 -107.084 246.204 -106.267 254.182C-105.505 261.639 -102.858 268.969 -101.247 275.857L-101.256 275.329C-100.631 278.257 -99.6506 279.72 -100.54 282.407C-101.168 284.294 -102.889 286.278 -103.919 288.012C-106.118 291.7 -108.227 295.431 -110.338 299.169C-108.467 289.681 -111.003 277.71 -113.01 268.39C-115.229 258.078 -117.932 247.516 -121.097 237.459C-123.558 229.638 -125.595 221.95 -126.338 213.809C-127.328 202.967 -130.277 192.54 -131.862 181.799C-133.358 171.657 -135.877 161.615 -138.023 151.576C-138.507 149.316 -140.665 138.506 -144.177 143.382C-145.043 144.585 -143.981 147.78 -143.845 149.024C-143.511 152.104 -143.303 155.135 -143.165 158.227C-142.269 177.858 -138.157 197.786 -134.935 217.128C-132.876 229.486 -130.695 241.889 -127.686 254.052C-125.343 263.522 -124.077 273.361 -121.478 282.698C-120.231 287.177 -118.965 291.755 -116.972 295.96C-115.239 299.62 -113.491 300.642 -114.103 304.586C-114.978 310.224 -119.779 316.077 -121.945 321.536C-123.717 325.999 -125.523 330.47 -127.211 334.964C-129.569 341.26 -131.779 347.666 -133.848 354.061C-135.049 357.765 -137.378 362.546 -137.596 366.313C-137.929 372.035 -134.69 370.398 -132.989 366.571C-131.845 363.995 -130.932 361.224 -129.855 358.605C-121.96 339.414 -114.73 318.838 -102.94 301.619C-98.0225 294.428 -84.4281 292.695 -76.4519 290.188C-57.2641 284.149 -36.5072 283.353 -16.5983 281.146C-0.54451 279.37 15.2488 277.736 30.9653 273.788C33.2611 273.213 75.154 260.879 74.1031 258.728C74.6898 259.935 28.2709 270.265 24.5536 270.57C12.8964 271.52 1.27632 271.775 -10.4065 272.269C-39.6288 273.506 -68.372 274.208 -94.9246 288.015C-91.5739 282.745 -87.5658 272.797 -81.6842 270.756C-70.3485 266.818 -58.4015 264.275 -46.9812 260.435C-35.1093 256.449 -22.9177 253.779 -10.9762 250.085C0.95196 246.395 12.8538 242.572 24.9632 239.469C37.1352 236.35 49.7091 233.1 62.3568 233.501C67.225 233.656 72.1068 234.087 76.9543 234.545C78.785 234.718 93.3556 237.412 85.4767 234.066C80.3746 231.897 73.6948 231.73 68.2293 230.934C61.9614 230.024 55.9534 229.216 49.6185 229.266C35.8247 229.372 21.9683 232.606 8.63485 235.807C-7.32267 239.634 -23.9345 243.432 -39.1668 249.591C-53.1273 255.236 -67.1593 260.656 -81.1204 266.231C-78.5816 262.345 -75.8816 258.576 -73.2402 254.759C-71.9575 252.902 -70.604 249.889 -68.7826 248.621C-66.0028 246.684 -60.1537 246.181 -56.9251 245.106C-43.9347 240.787 -30.8852 235.714 -17.574 232.501C3.82859 227.333 25.7404 224.128 47.2763 219.529C59.8446 216.848 73.154 214.482 86.0047 214.71C90.8387 214.798 95.6794 214.622 100.426 215.643C102.105 216.003 104.219 216.933 105.948 217.129C111.123 217.709 107.284 215.22 104.145 214.132C79.2662 205.519 51.8429 212.405 26.7645 215.91C10.1794 218.225 -6.19382 220.587 -22.0296 226.292C-36.6207 231.547 -50.5704 238.556 -65.4039 243.171C-61.5161 237.646 -58.05 231.925 -51.8383 228.885C-44.9643 225.524 -37.7191 224.062 -30.2172 222.788C-14.62 220.13 0.872733 216.728 16.5201 214.413C30.8947 212.29 45.2431 210.406 59.4917 207.508C73.3653 204.682 87.1574 203.031 100.399 197.691C104.591 196 109.674 193.069 114.15 192.813C119.952 192.482 126.977 194.22 132.666 195.082C146.522 197.177 160.905 199.337 173.714 205.202C186.282 210.958 194.816 220.004 204.437 229.461C207.468 232.445 210.45 235.479 213.473 238.471C214.146 239.138 218.163 244.146 218.991 244.21C224.115 244.594 214.449 234.438 212.781 232.357C201.254 217.976 188.78 205.982 171.822 198.147C157.37 191.469 142.261 187.126 126.501 184.902C126.541 182.053 138.152 181.911 138.47 178.96C138.892 175.025 130.767 178.963 129.157 179.447C126.099 180.365 123.125 181.513 120.052 182.382C112.996 184.376 105.19 181.92 98.0225 181C89.3811 179.896 80.6255 179.172 71.9345 178.649C43.1644 176.914 15.5603 177.868 -12.3839 185.577C-7.36961 181.185 -2.13862 177.011 3.16135 172.969C5.22488 171.396 6.79787 169.955 9.13564 169.217C13.0842 167.97 17.772 168.527 21.8881 168.124C38.1601 166.537 54.3579 164.753 70.7196 164.251C97.6463 163.425 125.721 168.258 151.256 176.818C163.714 180.996 175.936 185.059 186.753 192.749C189.258 194.527 191.485 196.568 193.761 198.623C194.702 199.472 200.446 205.649 200.738 205.616C203.23 205.35 191.676 192.565 189.997 190.932C167.436 169.003 138.161 164.018 108.268 159.615C77.0083 155.009 45.6314 157.455 14.8349 164.404C20.9846 160.567 27.0288 153.991 33.9324 151.76C39.1764 150.064 45.8324 150.386 51.1385 149.842C66.5264 148.26 82.6554 150.947 98.0768 152.039C115.498 153.271 132.421 155.506 149.264 160.147C157.882 162.522 166.274 165.035 174.683 168.119C181.347 170.563 186.784 172.068 192.175 176.534C194.35 178.352 200.821 183.18 204.322 186.462C205.75 187.803 207.229 190.635 208.843 191.309C214.855 193.817 206.876 184.021 205.566 182.321C210.345 185.176 214.806 188.482 219.049 192.002C219.888 192.7 220.691 193.233 221.541 193.87C222.538 194.621 223.061 196.812 224.769 196.082C226.16 195.484 225.666 194.051 225.002 193.144Z" fill="black" fill-opacity="0.2"/>
</svg>
