<svg width="135" height="431" fill="none" xmlns="http://www.w3.org/2000/svg"><path fill-rule="evenodd" clip-rule="evenodd" d="M356.663 374.318c-14.506-32.587-35.227-63.479-55.19-92.928 6.512 2.493 15.483 1.936 21.882-.498 7.191-2.733 11.246-8.324 14.695-14.905.49-.934 4.054-10.704 5.882-9.978 3.365 1.338 2.183 23.538 2.29 26.276.38 9.774 1.507 19.424 2.73 29.127 2.639 20.912 5.677 41.922 7.711 62.906Zm-64.617-112.136c-4.929-.139-7.945-7.429-10.747-11.316 5.305.317 28.471-3.696 30.635 1.956 3.514 9.193-15.396 9.476-19.888 9.36ZM198.482 84.309c-.309 2.92-1.422 14.198-5.635 10.25-2.85-2.672-3.484-13.445-4.119-16.794-1.297-6.822-3.488-15.285-2.456-22.247 1.956-13.178 9.748-3.286 11.031 3.973 1.417 8.003 2.017 16.704 1.179 24.818Zm29.1 61.446c6.116-3.041 3.14 3.468.657 6.468-6.98 8.441-7.294-2.166-.657-6.468Zm-9.915-32.248c-.571-6.689.913-15.544 3.408-21.64 1.959-4.787 7.123-8.917 9.39-2.328 1.883 5.47-4.013 18.776-6.94 23.686-2.379 3.992-5.433 7.283-5.858.282Zm-25.218-.458c-.166 12.713-11.591 16.245-9.811 1.887 1.09-8.784 9.118-14.559 9.811-1.887Zm15.701 78.266c-.178 5.264-12.973 22.481-12.769 12.304.058-2.902 12.651-17.077 12.769-12.304Zm-30.485-20.825c-4.002 2.067-15.133 9.195-18.879 7.16-5.986-3.252 1.875-9.935 4.838-11.561 3.236-1.778 12.048-6.042 16.164-4.992 7.549 1.932 2.024 7.018-2.123 9.393Zm-49.021-80.957c-9.716 3.056-11.898-8.374-13.257-15.205-.888-4.468-4.644-13.999.547-16.614 9.33-4.705 16.303 24.914 12.71 31.82Zm30.776 4.36c-.985-4.592-1.646-9.248-2.6-13.843-.569-2.734-3.991-12.5-3.249-14.667 2.35-6.877 7.688-2.8 10.485 2.688 2.869 5.635 5.325 17.04 4.368 23.085-.888 5.607-6.798 11.641-9.004 2.736Zm-12.581-48.5c-1.683-7.984 4.25-13.97 9.465-4.746 5.901 10.433-5.545 19.715-9.465 4.745Zm-.082 138.171c-.343 7.116-25.391 15.42-30.493 11.623-6.717-4.998 8.475-8.893 12.76-10.61 3.62-1.447 17.529-9.229 17.733-1.013Zm-41.487-14.755c-6.258 1.114-12.736 2.879-19.084 3.121-8.719.329-8.17-4.493-1.232-8.932 6.063-3.879 16.689-3.912 23.667-5.934 5.574-1.616 22.342-12.369 25.848-8.181 7.9 9.438-23.285 18.818-29.199 19.926Zm-1.098 27.755c-.707 9.65-26.504 10.358-32.257 10.358 4.091-2.343 31.824-23.802 32.257-10.358Zm-43.43-53.292c-17.21-2.281 1.379-13.144 7.428-14.892 4.39-1.272 14.702-4.04 18.65-.08 10.361 10.392-21.652 15.58-26.077 14.972Zm5.432-34.984c.984-5.928 30.61-12.082 31.696-6.46.854 4.426-31.553 19.117-31.696 6.46Zm40.633 11.281c12.172-6.688 26.882 2.179 8.895 9.551-3.53 1.445-12.783 5.374-16.234 2.272-4.874-4.379 4.126-10.173 7.339-11.823Zm311.925 57.325c-2.333-5.284-5.713-12.679-10.86-8.42-1.999 1.652-4.628 9.115-6.142 11.866-5.305 9.626-10.996 20.397-20.751 26.232-5.839 3.492-25.444 8.125-19.473-3.702 5.091-10.09 19.447-18.052 28.302-24.862 4.105-3.158 13.737-9.52 16.198-14.446 1.875-3.757-.804-13.294-7.446-11.856-3.014.653-4.236 9.159-5.544 11.486-2.069 3.674-5.349 6.39-8.302 9.322-4.679 4.651-9.832 11.636-16.624 13.374-8.169 2.093-10.148-2.767-5.396-9.45 4.648-6.53 14.046-10.103 20.088-15.243 3.005-2.559 12.409-9.984 10.742-14.418-3.633-9.655-11.304 3.187-13.831 5.702-1.98 1.966-14.077 14.729-17.166 11.758-3.713-3.57 6.564-15.458 8.494-18.024 4.07-5.415 5.569-4.941 1.439-8.456-2.359-2.011-7.488-4.042-10.328-3.92-6.966.297-14.622 5.946-21.871 6.929-3.001.408-12.973-.734-14.626 3.636-2.546 6.728 25.865 26.259 9.663 28.467-12.522 1.7-22.155-18.39-32.982-11.585-17.112 10.758 7.388 20.751 16.832 24.263 4.235 1.577 18.501 3.488 15.652 10.972-2.319 6.085-14.053 3.534-18.553 2.314-8.527-2.308-15.96-7.282-23.758-11.202-2.104-1.055-10.426-6.695-13.164-5.928-3.922 1.105-9.954 15.405-8.098 19.1 2.289 4.551 17.338 4.528 22.365 5.135 8.495 1.022 18.965 1.745 25.696 7.766 7.432 6.646-2.559 6.581-8.007 5.805-11.755-1.679-23.394-7.046-34.739-10.452-3.957-1.191-9.753-3.935-13.817-3.779-6.153.239-4.916.786-2.91 5.992 4.475 11.62 10.005 13.423 22.236 15.499 5.579.943 30.476.136 31.669 7.825-6.508 4.159-20.899.112-28.016-.692-5.207-.591-13.778-.223-18.063-3.192-5.834-4.051-12.374-17.653-16.391-23.249-7.127-9.927-14.131-19.797-22.085-29.106 9.454 2.308 18.132 6.233 28.08 4.792 10.876-1.578 21.752-7.669 24.445-18.93.986-4.12.713-8.477.826-12.671.034-1.34.234-2.702.205-4.045-.125-5.838.54-7.671-3.835-3.886-4.978 4.307-9.176 14.816-17.128 16.062-8.804 1.382-3.565-4.599.295-8.012 9.534-8.429 19.757-15.572 22.539-29.171 1.517-7.417 1.893-15.683 1.277-23.29-.594-7.312-1.912-7.221-4.92-1.577-6.526 12.243-15.776 21.947-27.535 29.404-2.253 1.431-7.341 4.973-10.276 2.394-2.657-2.332-.197-6.006.87-8.86 2.353-6.307 5.414-12.066 8.461-18.05 4.011-7.884 10.676-18.396 11.775-27.205.715-5.72-3.687-8.642-7.434-12.64-4.383-4.678-8.245-9.582-11.452-15.145-2.236-3.874-4.496-9.58-8.166-12.343-5.696-4.291-4.792.45-4.79 5.103.003 3.717 1.738 40.597-6.7 37.877-8.374-2.696-1.396-36.555-1.842-44.182-.593-10.105-14.538-10.118-22.716-12.76-4.312-1.396-8.301-2.297-12.32-4.336-1.522-.772-3.052-3.633-4.91-3-4.22 1.435 10.589 18.007 5.834 22.892-8.027 8.248-12.903-16.109-14.523-20.623-1.36-3.797-2.994-8.248-5.093-11.64-3.244-5.236-3.863-4.11-9.506-3.02-5.643 1.091-18.721-.342-23.218 2.875-4.349 3.112.505 6.188 2.964 9.651 2.329 3.277 9.832 14.357 2.447 15.77-2.667.511-11.315-8.073-13.595-9.887-4.841-3.855-3.801-2.983-8.25-2.315-5.171.773-11.01 1.845-16.032 3.084-6.3 1.557-7.85 2.438-3.719 7.25 4.845 5.638 12.55 9.507 14.463 17.078.97 3.284-.222 6.732-4.214 6.402-4.26-.351-5.622-6.35-6.952-9.623-1.685-4.144-4.662-13.794-9.628-15.12-3.103-.828-7.37 2.599-10.176 3.718-1.66.662-8.983 2.084-9.773 4.223-.866 2.349 6.823 8.385 8.794 11.176C88.767 52.893 94 61.59 95.367 69.696c.387 13.049-12.982-4.08-14.947-8.22-2.18-4.59-8.341-27.82-16.058-26.291-2.101.417-3.853 5.266-5.683 6.73-2.242 1.791-4.948 2.334-7.525 3.33-3.822 1.477-7.646 2.953-11.34 4.684-1.14.535-4.255 2.11-4.881 2.474-.472.277-1.424-.03-1.998.32-3.92 2.388-6.173 7.78-9.831 10.795-1.642 1.352-8.686 4.793-8.407 6.966.254 1.98 31.715 6.62 36.399 7.613 3.562.754 18.746 1.616 20.246 5.319 1.465 3.621-1.71 4.531-4.797 5.378-7.66 2.1-17.026 1.852-24.93 2.475-5.584.44-28.193-.38-31.642 4.787-3.56 5.336-.287 9.553 3.83 10.74 4.507 1.303 11.327.019 15.877-.186 3.707-.167 27.602-3.645 28.27 1.853.726 5.982-27.643 8.139-30.477 8.61-5.416.898-14.343.274-19.266 2.526-4.413 2.023-2.882 2.459-2.117 6.571 2.64 14.211 4.329 11.651 16.845 9.752 4.792-.728 11.005-2.26 15.212.744 5.027 3.583 4.36 7.386-.666 9.553-3.454 1.492-10.331 1.245-14.051 1.418-4.349.204-8.713-.007-13.045-.386-1.274-.111-6.748-1.585-8.04-.886-5.08 2.744 4.786 20.625 9.693 21.768 2.381.556 6.465-.704 8.906-.931 8.532-.804 17.131-.828 25.687-1.549 4.818-.405 27.61-4.697 22.508 6.389-2.82 6.125-19.16 7.739-24.654 9.026a233.118 233.118 0 0 1-15.926 3.156c-5.006.812-7.796.001-5.08 5.723 2.767 5.823 20.813 24.537 27.05 24.616 5.118.062 3.464-2.472 8.824 1.478 1.967 1.453 3.885 3.713 5.538 5.506 6.352 6.872 12.63 16.502 22.18 19.192 20.412 5.752 51.53-19.256 66.22-30.85 2.919-2.302 14.348-13.883 19.028-10.581 4.919 3.469-5.28 14.329-7.299 16.408-11.246 11.591-24.906 22.434-40.366 27.515-4.119 1.352-15.34 1.931-19.383 4.64-4.01 2.683-.313 4.04 3.368 7.023 7.851 6.355 18.269 15.617 28.923 13.249 14.026-3.12 22.723-16.656 31.424-27.095 4.827-5.789 27.468-33.152 25.461-10.141-1.002 11.455-9.543 23.838-18.116 30.937-1.602 1.325-11.49 5.093-11.403 6.229.135 1.726 5.713 3.012 6.722 3.335 9.788 3.139 39.533 9.036 45.015-3.428 3.762-8.552 1.634-23.02 1.269-32.029-.115-2.8-1.609-7.425 2.443-7.912 5.191-.625 7.794 17.559 7.897 20.41.212 5.862-1.254 11.803-4.034 17.553-1.222 2.527-4.093 4.608-.689 5.358 1.234.27 8.875-5.692 10.079-6.694 6.131-5.123 7.139-11.475 7.426-19.04.765-20.417-6.72-41.133-16.031-59.095 11.781 14.914 22.913 30.249 33.597 45.971 2.67 3.928 4.361 8.578 7.002 12.376 3.812 5.475 8.714 10.106 12.666 15.94-1.307-.264-12.436-4.473-13.075-1.39-.58 2.805 8.683 8.154 10.566 9.4 8.474 5.621 11.952 6.382 18.135 15.654 15.386 23.08 29.184 46.794 42.598 71.052 6.556 11.856 13.535 23.588 19.118 35.944 2.801 6.197 4.896 12.725 6.85 19.232 1.343 4.474 2.282 17.674 7.656 19.596 6.246 2.237 5.373-4.97 4.4-8.422-2.195-7.78-3.608-15.284-4.925-23.309-2.14-13.053-3.421-26.23-5.884-39.241-3.074-16.236-5.319-32.522-7.56-48.886-1.456-10.621-2.545-21.382-3.099-32.094-.38-7.356.66-15.091-.582-22.385 6.896 7.571 4.206 19.755 16.758 21.884 9.7 1.647 17.536-5.542 23.811-11.95 5.116-5.225 12.511-13.156 14.132-20.525 1.932-8.794-6.15-3.166-11.895-1.787-3.708.892-14.153 5.605-16.768 1.917-3.656-5.161 11.676-9.884 14.7-11.412 6.654-3.359 14.074-7.507 19.417-12.864 2.111-2.118 12.382-26.363 3.389-23.819-1.14.322-3.015 3.668-4.022 4.81-4.672 5.297-9.847 9.981-15.367 14.372-6.017 4.783-19.24 16.131-28.128 12.514 4.82-10.873 20.934-15.198 30.06-21.738 5.864-4.201 11.053-8.968 14.902-15.14 1.913-3.071 6.862-11.713 5.255-15.337Z" fill="#02362C"/></svg>