<svg width="169" height="370" fill="none" xmlns="http://www.w3.org/2000/svg"><path fill-rule="evenodd" clip-rule="evenodd" d="M85.504 128.531c-12.476-3.975-25.482-4.91-38.41-6.306 4.119-.908 8.579-2.123 12.774-2.589 3.861-.423 6.159 1.168 9.793 2.435 6.486 2.265 13.732 5.017 19.37 7.648-1.17-.415-2.345-.811-3.527-1.188Zm-17.767 4.963c-13.687-2.559-27.7-3.116-41.368-5.791 3.389-1.037 5.309-1.941 8.91-1.598 5.354.509 10.77 1.607 16.002 2.772 7.592 1.692 15.252 3.516 22.648 5.916a145.064 145.064 0 0 0-6.192-1.299Zm.658 2.672c-.936.379-4.22-.905-5.28-1.135 1.022.195 4.681 1.377 5.28 1.135Zm-27.25-.283a477.47 477.47 0 0 0-32.28-.955c1.926-.719 3.766-1.622 5.643-2.463 5.13-2.3 6.023-1.934 11.146-.421 6.607 1.952 13.376 3.063 20.15 4.194a137.028 137.028 0 0 0-4.66-.355Zm-12.5 6.175c-14.785 1.121-29.37 2.911-44.13 4.564 3.151-1.273 6.181-2.893 9.191-4.457 4.647-2.412 8.214-2.072 13.394-2.073 5.502-.003 10.906.644 16.375 1.266 1.35.156 6.634.589 5.17.7ZM5.864 130.819c7.893-7.666 16.949-14.81 26.226-20.781 5.889-3.79 12.293-8.07 19.212-4.783-11.444.475-26.395 10.855-33.168 19.753-.325.421-.822.713-1.161 1.127-1.27 1.544.114 1.712-.752 2.662-.1.111-4.724 1.999-4.11 1.747-3.137 1.294-6.346 2.38-9.488 3.656a139.016 139.016 0 0 1 3.241-3.381Zm44.034-18.365c-7.77 6.498-16.2 9.957-25.557 13.217 8.546-5.497 17.115-9.993 26.51-13.929a130.9 130.9 0 0 0-.953.712Zm9.67 2.23c1.619-.519 2.341-.385 2.702 1.539-4.185-.159-6.173.414-10.127 1.374a57.448 57.448 0 0 1 7.424-2.913Zm5.135 1.05c-.292-.528-.416-1.536-.62-2.052 3.108-.05 5.747.607 8.387 2.237-.875.008-7.551.778-7.767-.186v.001Zm-125.989 72.132c22.714-2.804 44.5-3.535 67.312-1.309-17.186 1.506-34.445 4.959-51.356 8.311-13.578 2.691-27.347 4.144-40.964 6.577 2.523-2.627 4.882-5.409 7.452-7.998 4.464-4.495 11.153-4.781 17.556-5.581Zm78.093 6.698c4.101-.42 8.192-.929 12.271-1.526 4.434-.654 11.506-3.577 15.967-2.697-24.357 7.231-50.677 10.562-75.716 14.636-10.408 1.693-21.004 4.169-31.086 7.311-14.557 4.533-30.976 4.509-44.869 10.878 4.249-4.453 8.902-10.823 13.742-14.444 3.518-2.634 9.354-2.853 13.54-3.405 6.89-.909 13.816-1.615 20.725-2.358 25.153-2.709 50.265-5.766 75.426-8.395Zm-127.371 24.111a188.734 188.734 0 0 0-5.965 6.892c3.507-16.457 3.348-33.814 5.322-50.522 1.117-9.447 2.165-19 3.667-28.385 1.328-8.287 1.681-19.577 6.122-26.736 3.315 3.08 5.766 6.349 5.108 10.825-.846 5.757-3.325 11.29-4.478 17.001-1.295 6.418-2.171 12.951-2.971 19.448-1.232 9.992-1.518 20.157-.989 30.205.143 2.824.324 5.647.545 8.466.096 1.23.734 3.327.462 4.477-.663 2.828-4.686 5.961-6.823 8.329Zm24.49-68.523c1.945-9.248 3.132-19.993 7.18-28.662 2.248-4.817 4.41-6.532 7.77-1.327 2.397 3.713-1.368 11.864-2.555 16.532-3.365 13.243-5.14 26.832-7.367 40.298-.581 3.529-.753 7.018-1.129 10.551-.312 2.928-.231 2.755-1.918 4.96-1.084 1.424-2.794 2.634-4.102 3.884-3.428 3.277-6.903 6.51-10.296 9.824 5.16-18.47 8.479-37.316 12.416-56.06Zm253.951 42.029c-3.128-4.162-7.096-7.914-11.154-11.129-5.622-4.46-12.507-7.068-18.121-11.357-4.722-3.61-8.623-8.414-13.449-12.07-7.666-5.802-15.555-10.628-24.532-14.115 11.433 3.903 22.397 8.601 31.555 16.698.774.686 7.483 9.277 8.871 8.456.95-.554-3.076-6.772-3.915-8.22-6.189-10.648-18.889-17.462-28.925-24.3-11.334-7.723-23.71-12.056-36.624-16.328 11.732.649 21.616 3.663 31.444 10.266 4.834 3.246 9.307 7.038 14.29 10.052 4.417 2.673 8.66 5.137 12.472 8.722 4.27 4.02 7.701 8.399 10.535 13.534 1.065 1.931 6.266 13.623 6.405 6.197.069-3.66-4.553-8.876-6.423-11.52-3.154-4.455-6.813-8.468-10.642-12.348-6.514-6.595-12.731-13.439-20.462-18.641-4.397-2.961-9.002-5.307-14.032-6.998-3.886-1.308-7.874-2.247-11.95-2.709-3.872-.438-4.244-.392-7.325-2.393-2.647-1.72-4.907-3.561-7.869-4.789-3.018-1.252-5.587-1.431-7.833-3.139-2.65-2.019-3.677-4.387-7.096-5.651-3.142-1.164-6.358-.908-9.637-.647-10.845.864-21.854 3.613-30.826 10.027-7.928 5.67-13.318 14.72-17.15 23.544-2.116 4.869-.68 4.686-6.362 7.484-5.975 2.943-11.916 5.834-17.729 9.118 9.584-11.915 17.916-25.107 28.423-36.274 5.618-5.964 11.128-12.025 16.744-17.986 1.659-1.757 14.756-14.41 7.399-13.96-1.701.102-4.26 2.376-5.823 3.122-3.12 1.498-6.218 2.825-9.102 4.782-4.999 3.393-9.08 7.614-13.167 12.004-10.59 11.373-20.133 23.537-25.018 38.47-1.157 3.534-1.58 7.518-3.393 10.76-1.277 2.288-2.776 3.078-5.37 4.767-4.447 2.893-8.77 5.867-12.981 9.101 10.768-15.952 17.714-33.805 26.198-50.982C-13.786 91.644-8.794 66.857.384 44.039c1.78-4.427 3.949-9.297 6.937-13.064.908-1.146 3.781-2.864 4.032-4.308.662-3.811-1.919-2.788-3.813-1.692-4.644 2.684-9.152 8.74-12.325 12.821-4.618 5.937-9.294 12.378-13.294 18.775-13.78 22.031-22.914 47.033-30.501 71.779-3.57 11.633-7.251 23.458-9.007 35.521-.847 5.825.116 5.981-4.75 9.968-5.081 4.165-9.937 8.583-14.978 12.79 4.593-9.436 7.33-21.138 10.645-31.148 3.47-10.487 7.418-20.816 10.945-31.287 5.736-17.039 10.03-34.484 14.159-51.966a852.734 852.734 0 0 0 6.129-27.957c2.416-12.029 4.873-25.918 10.262-37.013.804-1.65 4.07-9.318-.656-6.677-2.166 1.207-4.731 9.108-5.836 11.238-6.261 12.097-11.536 24.38-16.248 37.156-8.352 22.651-14.213 45.863-20.83 69.027-3.31-4.52-10.181-9.495-16.118-7.572-5.333 1.728-7.955 9.32-9.632 14.077-.187-3.291-4.223-9.429-7.37-9.639-1.788-.12-4.869 1.574-6.364 2.281-3.697 1.748-7.896 3.959-10.201 7.399-4.724 7.058-3.827 18.135-4.666 26.304-2.498 24.361-2.047 47.883.708 72.145.63 5.552 1.39 8.127-1.767 12.503-3.607 4.999-7.084 9.914-10.635 14.608 1.141-2.174.109-8.818.096-11.137-.038-6.209.025-12.365.347-18.57.66-12.778-.027-25.986-.672-38.773-1.327-26.345-1.209-52.355-.324-78.693.186-5.55.06-11.066.026-16.614-.015-2.29.742-7.9-2.894-6.56-1.056.39-1.833 4.486-2.14 5.525-2.832 9.576-3.72 19.936-5.017 29.771-1.178 8.945-2.254 17.904-3 26.894-1.434 17.269-.959 34.039-.87 51.337.075 14.249 1.621 29.742 4.256 42.888 1.236 6.165 3.383 12.827 4.009 19.041.379 3.742-1.81 5.128-4.323 8.525-2.544 3.436-5.057 6.898-7.484 10.417.233-5.392-1.304-10.967-1.665-16.362-.302-4.507-.589-8.993-.995-13.495-.323-3.546-.628-7.095-.942-10.644-1.621-18.267-3.204-36.494-6.194-54.594-4.596-27.793-9.61-56.357-9.427-84.632.036-5.396.21-10.789.272-16.186.045-4.069-.329-8.105-.353-12.167-.013-2.072.931-6.078.24-8.143-2-5.974-3.731.701-3.786 3.444-.028 1.446-.115 2.887-.137 4.331-.132 9.079-.913 18.033-1.36 27.1-.642 13.076-.066 26.086.369 39.154.476 14.236.121 28.57 1.652 42.753 1.975 18.282 5.928 36.458 8.41 54.692 1.08 7.941 2.586 15.794 3.404 23.772.762 7.455 3.409 14.785 5.021 21.673l-.009-.528c.625 2.927 1.605 4.391.715 7.077-.627 1.888-2.347 3.871-3.377 5.605-2.197 3.687-4.306 7.418-6.416 11.155 1.869-9.487-.667-21.457-2.674-30.776-2.219-10.312-4.923-20.873-8.088-30.93-2.461-7.82-4.498-15.507-5.241-23.648-.991-10.841-3.94-21.267-5.526-32.008-1.496-10.14-4.015-20.182-6.162-30.221-.484-2.259-2.643-13.069-6.153-8.193-.865 1.203.196 4.398.332 5.641.335 3.08.543 6.111.682 9.202.897 19.63 5.009 39.557 8.232 58.897 2.06 12.357 4.241 24.759 7.251 36.921 2.343 9.47 3.609 19.308 6.209 28.645 1.247 4.478 2.513 9.056 4.506 13.261 1.733 3.659 3.48 4.682 2.869 8.625-.875 5.638-5.673 11.49-7.838 16.948-1.771 4.463-3.577 8.932-5.264 13.426a445.925 445.925 0 0 0-6.633 19.095c-1.2 3.703-3.528 8.483-3.746 12.25-.332 5.721 2.906 4.086 4.606.259 1.143-2.576 2.056-5.346 3.132-7.966 7.892-19.187 15.117-39.761 26.902-56.978 4.916-7.19 18.506-8.921 26.48-11.427 19.181-6.036 39.932-6.831 59.835-9.035 16.05-1.775 31.838-3.407 47.55-7.353 2.295-.575 44.175-12.904 43.124-15.055.586 1.207-45.818 11.532-49.535 11.836-11.653.949-23.27 1.203-34.95 1.696-29.213 1.234-57.948 1.933-84.492 15.737 3.349-5.27 7.355-15.217 13.235-17.257 11.332-3.936 23.276-6.478 34.692-10.317 11.868-3.984 24.056-6.653 35.994-10.345 11.924-3.689 23.822-7.51 35.928-10.612 12.168-3.117 24.738-6.366 37.382-5.964 4.867.155 9.748.588 14.594 1.046 1.83.173 16.397 2.868 8.52-.479-5.101-2.169-11.779-2.337-17.243-3.133-6.266-.91-12.273-1.719-18.606-1.67-13.79.106-27.642 3.338-40.97 6.537-15.953 3.825-32.56 7.621-47.788 13.778-13.956 5.644-27.983 11.062-41.94 16.635 2.538-3.885 5.237-7.654 7.877-11.471 1.282-1.856 2.635-4.869 4.456-6.136 2.779-1.937 8.626-2.439 11.854-3.514 12.986-4.318 26.031-9.389 39.338-12.6 21.396-5.165 43.302-8.368 64.831-12.965 12.564-2.679 25.87-5.044 38.717-4.815 4.832.089 9.672-.087 14.417.935 1.679.359 3.792 1.29 5.521 1.485 5.173.581 1.335-1.907-1.803-2.996-24.873-8.615-52.287-1.732-77.358 1.77-16.58 2.314-32.949 4.674-48.78 10.377-14.586 5.253-28.531 12.26-43.36 16.873 3.886-5.524 7.351-11.244 13.561-14.283 6.871-3.36 14.114-4.821 21.614-6.095 15.592-2.655 31.08-6.056 46.723-8.369 14.37-2.121 28.714-4.004 42.959-6.901 13.87-2.825 27.657-4.474 40.894-9.812 4.191-1.691 9.272-4.621 13.747-4.876 5.8-.33 12.823 1.408 18.51 2.27 13.853 2.096 28.232 4.257 41.038 10.123 12.565 5.757 21.097 14.803 30.717 24.26 3.03 2.984 6.012 6.018 9.034 9.01.673.667 4.689 5.675 5.517 5.739 5.123.384-4.541-9.772-6.209-11.853-11.525-14.381-23.997-26.374-40.951-34.21-14.448-6.679-29.553-11.024-45.31-13.249.04-2.848 11.648-2.989 11.966-5.939.42-3.936-7.7.001-9.31.486-3.058.917-6.031 2.065-9.103 2.934-7.053 1.993-14.857-.464-22.023-1.384-8.639-1.106-17.392-1.83-26.08-2.354-28.763-1.738-56.359-.786-84.294 6.92 5.012-4.392 10.241-8.565 15.54-12.606 2.062-1.572 3.634-3.013 5.971-3.751 3.948-1.247 8.634-.689 12.75-1.092 16.266-1.585 32.46-3.367 48.816-3.868 26.92-.824 54.986 4.012 80.515 12.574 12.455 4.178 24.674 8.242 35.489 15.933 2.503 1.778 4.73 3.819 7.006 5.873.94.85 6.684 7.027 6.976 6.994 2.491-.266-9.061-13.05-10.739-14.684-22.558-21.929-51.825-26.917-81.71-31.322-31.25-4.608-62.618-2.165-93.405 4.78 6.147-3.836 12.19-10.411 19.09-12.641 5.243-1.696 11.897-1.373 17.202-1.916 15.383-1.581 31.508 1.108 46.925 2.201 17.416 1.234 34.334 3.469 51.173 8.112 8.616 2.375 17.006 4.889 25.412 7.974 6.662 2.445 12.098 3.95 17.489 8.416 2.174 1.818 8.644 6.646 12.144 9.928 1.427 1.341 2.906 4.173 4.52 4.846 6.01 2.509-1.967-7.286-3.277-8.987 4.778 2.856 9.238 6.162 13.48 9.681.839.699 1.642 1.231 2.491 1.869.998.751 1.52 2.942 3.228 2.211 1.39-.597.896-2.03.232-2.936Z" fill="#012A32"/></svg>